<svg width="40" height="41" viewBox="0 0 40 41" fill="none" xmlns="http://www.w3.org/2000/svg">
<path d="M11.9697 19.9697C11.6768 20.2626 11.6768 20.7374 11.9697 21.0303L16.7426 25.8033C17.0355 26.0962 17.5104 26.0962 17.8033 25.8033C18.0962 25.5104 18.0962 25.0355 17.8033 24.7426L13.5607 20.5L17.8033 16.2574C18.0962 15.9645 18.0962 15.4896 17.8033 15.1967C17.5104 14.9038 17.0355 14.9038 16.7426 15.1967L11.9697 19.9697ZM27.5 19.75H12.5V21.25H27.5V19.75Z" fill="#808080"/>
<path d="M39 20.5C39 30.9934 30.4934 39.5 20 39.5C9.50659 39.5 1 30.9934 1 20.5C1 10.0066 9.50659 1.5 20 1.5C30.4934 1.5 39 10.0066 39 20.5Z" stroke="#808080" stroke-width="2"/>
</svg>
