<svg width="40" height="42" viewBox="0 0 40 42" fill="none" xmlns="http://www.w3.org/2000/svg">
<path d="M28.0303 21.5303C28.3232 21.2374 28.3232 20.7626 28.0303 20.4697L23.2574 15.6967C22.9645 15.4038 22.4896 15.4038 22.1967 15.6967C21.9038 15.9896 21.9038 16.4645 22.1967 16.7574L26.4393 21L22.1967 25.2426C21.9038 25.5355 21.9038 26.0104 22.1967 26.3033C22.4896 26.5962 22.9645 26.5962 23.2574 26.3033L28.0303 21.5303ZM12.5 21.75H27.5V20.25H12.5V21.75Z" fill="#008FFF"/>
<path d="M1 21C1 10.5066 9.50659 2 20 2C30.4934 2 39 10.5066 39 21C39 31.4934 30.4934 40 20 40C9.50659 40 1 31.4934 1 21Z" stroke="#008FFF" stroke-width="2"/>
</svg>
