<svg width="40" height="41" viewBox="0 0 40 41" fill="none" xmlns="http://www.w3.org/2000/svg">
<g clip-path="url(#clip0_322_877)">
<path d="M28.0303 21.0303C28.3232 20.7374 28.3232 20.2626 28.0303 19.9697L23.2574 15.1967C22.9645 14.9038 22.4896 14.9038 22.1967 15.1967C21.9038 15.4896 21.9038 15.9645 22.1967 16.2574L26.4393 20.5L22.1967 24.7426C21.9038 25.0355 21.9038 25.5104 22.1967 25.8033C22.4896 26.0962 22.9645 26.0962 23.2574 25.8033L28.0303 21.0303ZM12.5 21.25H27.5V19.75H12.5V21.25Z" fill="#008FFF"/>
<path d="M1 20.5C1 10.0066 9.50659 1.5 20 1.5C30.4934 1.5 39 10.0066 39 20.5C39 30.9934 30.4934 39.5 20 39.5C9.50659 39.5 1 30.9934 1 20.5Z" stroke="#008FFF" stroke-width="2"/>
</g>
<defs>
<clipPath id="clip0_322_877">
<rect width="40" height="41" fill="white"/>
</clipPath>
</defs>
</svg>
